<svg id="visual" viewBox="0 0 900 600" width="900" height="600" xmlns="http://www.w3.org/2000/svg" xmlns:xlink="http://www.w3.org/1999/xlink" version="1.1"><path d="M0 377L21.5 376.8C43 376.7 86 376.3 128.8 373C171.7 369.7 214.3 363.3 257.2 361.5C300 359.7 343 362.3 385.8 376.2C428.7 390 471.3 415 514.2 426.3C557 437.7 600 435.3 642.8 429.3C685.7 423.3 728.3 413.7 771.2 415.7C814 417.7 857 431.3 878.5 438.2L900 445L900 601L878.5 601C857 601 814 601 771.2 601C728.3 601 685.7 601 642.8 601C600 601 557 601 514.2 601C471.3 601 428.7 601 385.8 601C343 601 300 601 257.2 601C214.3 601 171.7 601 128.8 601C86 601 43 601 21.5 601L0 601Z" fill="#f2bb68"></path><path d="M0 443L21.5 436.7C43 430.3 86 417.7 128.8 419.8C171.7 422 214.3 439 257.2 449.8C300 460.7 343 465.3 385.8 459.3C428.7 453.3 471.3 436.7 514.2 437.7C557 438.7 600 457.3 642.8 456.7C685.7 456 728.3 436 771.2 431.3C814 426.7 857 437.3 878.5 442.7L900 448L900 601L878.5 601C857 601 814 601 771.2 601C728.3 601 685.7 601 642.8 601C600 601 557 601 514.2 601C471.3 601 428.7 601 385.8 601C343 601 300 601 257.2 601C214.3 601 171.7 601 128.8 601C86 601 43 601 21.5 601L0 601Z" fill="#d79f4d"></path><path d="M0 488L21.5 483.8C43 479.7 86 471.3 128.8 466.5C171.7 461.7 214.3 460.3 257.2 464.2C300 468 343 477 385.8 477.7C428.7 478.3 471.3 470.7 514.2 475.8C557 481 600 499 642.8 502.7C685.7 506.3 728.3 495.7 771.2 490C814 484.3 857 483.7 878.5 483.3L900 483L900 601L878.5 601C857 601 814 601 771.2 601C728.3 601 685.7 601 642.8 601C600 601 557 601 514.2 601C471.3 601 428.7 601 385.8 601C343 601 300 601 257.2 601C214.3 601 171.7 601 128.8 601C86 601 43 601 21.5 601L0 601Z" fill="#bd8331"></path><path d="M0 539L21.5 539.8C43 540.7 86 542.3 128.8 540.2C171.7 538 214.3 532 257.2 533C300 534 343 542 385.8 544.5C428.7 547 471.3 544 514.2 546.3C557 548.7 600 556.3 642.8 558.2C685.7 560 728.3 556 771.2 548.3C814 540.7 857 529.3 878.5 523.7L900 518L900 601L878.5 601C857 601 814 601 771.2 601C728.3 601 685.7 601 642.8 601C600 601 557 601 514.2 601C471.3 601 428.7 601 385.8 601C343 601 300 601 257.2 601C214.3 601 171.7 601 128.8 601C86 601 43 601 21.5 601L0 601Z" fill="#a26914"></path></svg>