<svg id="visual" viewBox="0 0 900 900" width="900" height="900" xmlns="http://www.w3.org/2000/svg" xmlns:xlink="http://www.w3.org/1999/xlink" version="1.1"><path d="M0 517L21.5 524.5C43 532 86 547 128.8 556.3C171.7 565.7 214.3 569.3 257.2 575.7C300 582 343 591 385.8 598.3C428.7 605.7 471.3 611.3 514.2 605.3C557 599.3 600 581.7 642.8 567.5C685.7 553.3 728.3 542.7 771.2 535.5C814 528.3 857 524.7 878.5 522.8L900 521L900 901L878.5 901C857 901 814 901 771.2 901C728.3 901 685.7 901 642.8 901C600 901 557 901 514.2 901C471.3 901 428.7 901 385.8 901C343 901 300 901 257.2 901C214.3 901 171.7 901 128.8 901C86 901 43 901 21.5 901L0 901Z" fill="#54eac9"></path><path d="M0 597L21.5 607C43 617 86 637 128.8 651.8C171.7 666.7 214.3 676.3 257.2 666.2C300 656 343 626 385.8 622.2C428.7 618.3 471.3 640.7 514.2 656.8C557 673 600 683 642.8 678.2C685.7 673.3 728.3 653.7 771.2 643.2C814 632.7 857 631.3 878.5 630.7L900 630L900 901L878.5 901C857 901 814 901 771.2 901C728.3 901 685.7 901 642.8 901C600 901 557 901 514.2 901C471.3 901 428.7 901 385.8 901C343 901 300 901 257.2 901C214.3 901 171.7 901 128.8 901C86 901 43 901 21.5 901L0 901Z" fill="#3cbea0"></path><path d="M0 710L21.5 712.5C43 715 86 720 128.8 719.7C171.7 719.3 214.3 713.7 257.2 721C300 728.3 343 748.7 385.8 755.3C428.7 762 471.3 755 514.2 755.7C557 756.3 600 764.7 642.8 753.2C685.7 741.7 728.3 710.3 771.2 704C814 697.7 857 716.3 878.5 725.7L900 735L900 901L878.5 901C857 901 814 901 771.2 901C728.3 901 685.7 901 642.8 901C600 901 557 901 514.2 901C471.3 901 428.7 901 385.8 901C343 901 300 901 257.2 901C214.3 901 171.7 901 128.8 901C86 901 43 901 21.5 901L0 901Z" fill="#23947a"></path><path d="M0 815L21.5 808C43 801 86 787 128.8 786.2C171.7 785.3 214.3 797.7 257.2 803.7C300 809.7 343 809.3 385.8 807C428.7 804.7 471.3 800.3 514.2 803.5C557 806.7 600 817.3 642.8 812.3C685.7 807.3 728.3 786.7 771.2 778.2C814 769.7 857 773.3 878.5 775.2L900 777L900 901L878.5 901C857 901 814 901 771.2 901C728.3 901 685.7 901 642.8 901C600 901 557 901 514.2 901C471.3 901 428.7 901 385.8 901C343 901 300 901 257.2 901C214.3 901 171.7 901 128.8 901C86 901 43 901 21.5 901L0 901Z" fill="#056d56"></path></svg>